<svg width="481" height="174" viewBox="0 0 481 174" fill="none" xmlns="http://www.w3.org/2000/svg">
<path d="M14.0938 48.6562L14.9688 54.6562L16.25 49.25L25.25 17.5H30.3125L39.0938 49.25L40.3438 54.75L41.3125 48.625L48.375 17.5H54.4062L43.375 63H37.9062L28.5312 29.8438L27.8125 26.375L27.0938 29.8438L17.375 63H11.9062L0.90625 17.5H6.90625L14.0938 48.6562ZM57.6562 45.7812C57.6562 42.4688 58.3021 39.4896 59.5938 36.8438C60.9062 34.1979 62.7188 32.1562 65.0312 30.7188C67.3646 29.2812 70.0208 28.5625 73 28.5625C77.6042 28.5625 81.3229 30.1562 84.1562 33.3438C87.0104 36.5312 88.4375 40.7708 88.4375 46.0625V46.4688C88.4375 49.7604 87.8021 52.7188 86.5312 55.3438C85.2812 57.9479 83.4792 59.9792 81.125 61.4375C78.7917 62.8958 76.1042 63.625 73.0625 63.625C68.4792 63.625 64.7604 62.0312 61.9062 58.8438C59.0729 55.6562 57.6562 51.4375 57.6562 46.1875V45.7812ZM63.4688 46.4688C63.4688 50.2188 64.3333 53.2292 66.0625 55.5C67.8125 57.7708 70.1458 58.9062 73.0625 58.9062C76 58.9062 78.3333 57.7604 80.0625 55.4688C81.7917 53.1562 82.6562 49.9271 82.6562 45.7812C82.6562 42.0729 81.7708 39.0729 80 36.7812C78.25 34.4688 75.9167 33.3125 73 33.3125C70.1458 33.3125 67.8438 34.4479 66.0938 36.7188C64.3438 38.9896 63.4688 42.2396 63.4688 46.4688ZM112.031 34.375C111.156 34.2292 110.208 34.1562 109.188 34.1562C105.396 34.1562 102.823 35.7708 101.469 39V63H95.6875V29.1875H101.312L101.406 33.0938C103.302 30.0729 105.99 28.5625 109.469 28.5625C110.594 28.5625 111.448 28.7083 112.031 29V34.375ZM126.812 47.3438L123.188 51.125V63H117.406V15H123.188V44.0312L126.281 40.3125L136.812 29.1875H143.844L130.688 43.3125L145.375 63H138.594L126.812 47.3438Z" fill="black"/>
<path d="M212.547 83.75L234.859 139.438L257.172 83.75H268.844V152H259.844V125.422L260.688 96.7344L238.281 152H231.391L209.031 96.875L209.922 125.422V152H200.922V83.75H212.547ZM281.078 126.172C281.078 121.203 282.047 116.734 283.984 112.766C285.953 108.797 288.672 105.734 292.141 103.578C295.641 101.422 299.625 100.344 304.094 100.344C311 100.344 316.578 102.734 320.828 107.516C325.109 112.297 327.25 118.656 327.25 126.594V127.203C327.25 132.141 326.297 136.578 324.391 140.516C322.516 144.422 319.812 147.469 316.281 149.656C312.781 151.844 308.75 152.938 304.188 152.938C297.312 152.938 291.734 150.547 287.453 145.766C283.203 140.984 281.078 134.656 281.078 126.781V126.172ZM289.797 127.203C289.797 132.828 291.094 137.344 293.688 140.75C296.312 144.156 299.812 145.859 304.188 145.859C308.594 145.859 312.094 144.141 314.688 140.703C317.281 137.234 318.578 132.391 318.578 126.172C318.578 120.609 317.25 116.109 314.594 112.672C311.969 109.203 308.469 107.469 304.094 107.469C299.812 107.469 296.359 109.172 293.734 112.578C291.109 115.984 289.797 120.859 289.797 127.203ZM346.328 101.281L346.609 107.656C350.484 102.781 355.547 100.344 361.797 100.344C372.516 100.344 377.922 106.391 378.016 118.484V152H369.344V118.438C369.312 114.781 368.469 112.078 366.812 110.328C365.188 108.578 362.641 107.703 359.172 107.703C356.359 107.703 353.891 108.453 351.766 109.953C349.641 111.453 347.984 113.422 346.797 115.859V152H338.125V101.281H346.328ZM412.141 152.938C405.266 152.938 399.672 150.688 395.359 146.188C391.047 141.656 388.891 135.609 388.891 128.047V126.453C388.891 121.422 389.844 116.938 391.75 113C393.688 109.031 396.375 105.938 399.812 103.719C403.281 101.469 407.031 100.344 411.062 100.344C417.656 100.344 422.781 102.516 426.438 106.859C430.094 111.203 431.922 117.422 431.922 125.516V129.125H397.562C397.688 134.125 399.141 138.172 401.922 141.266C404.734 144.328 408.297 145.859 412.609 145.859C415.672 145.859 418.266 145.234 420.391 143.984C422.516 142.734 424.375 141.078 425.969 139.016L431.266 143.141C427.016 149.672 420.641 152.938 412.141 152.938ZM411.062 107.469C407.562 107.469 404.625 108.75 402.25 111.312C399.875 113.844 398.406 117.406 397.844 122H423.25V121.344C423 116.938 421.812 113.531 419.688 111.125C417.562 108.688 414.688 107.469 411.062 107.469ZM457.938 139.297L469.75 101.281H479.031L458.641 159.828C455.484 168.266 450.469 172.484 443.594 172.484L441.953 172.344L438.719 171.734V164.703L441.062 164.891C444 164.891 446.281 164.297 447.906 163.109C449.562 161.922 450.922 159.75 451.984 156.594L453.906 151.438L435.812 101.281H445.281L457.938 139.297Z" fill="black"/>
<path d="M212.547 83.75L213.475 83.3781L213.223 82.75H212.547V83.75ZM234.859 139.438L233.931 139.809L234.859 142.126L235.788 139.809L234.859 139.438ZM257.172 83.75V82.75H256.495L256.244 83.3781L257.172 83.75ZM268.844 83.75H269.844V82.75H268.844V83.75ZM268.844 152V153H269.844V152H268.844ZM259.844 152H258.844V153H259.844V152ZM259.844 125.422L258.844 125.392L258.844 125.407V125.422H259.844ZM260.688 96.7344L261.687 96.7638L259.761 96.3587L260.688 96.7344ZM238.281 152V153H238.955L239.208 152.376L238.281 152ZM231.391 152L230.464 152.376L230.717 153H231.391V152ZM209.031 96.875L209.958 96.4991L208.032 96.9062L209.031 96.875ZM209.922 125.422H210.922V125.406L210.921 125.391L209.922 125.422ZM209.922 152V153H210.922V152H209.922ZM200.922 152H199.922V153H200.922V152ZM200.922 83.75V82.75H199.922V83.75H200.922ZM211.619 84.1219L233.931 139.809L235.788 139.066L213.475 83.3781L211.619 84.1219ZM235.788 139.809L258.1 84.1219L256.244 83.3781L233.931 139.066L235.788 139.809ZM257.172 84.75H268.844V82.75H257.172V84.75ZM267.844 83.75V152H269.844V83.75H267.844ZM268.844 151H259.844V153H268.844V151ZM260.844 152V125.422H258.844V152H260.844ZM260.843 125.451L261.687 96.7638L259.688 96.705L258.844 125.392L260.843 125.451ZM259.761 96.3587L237.355 151.624L239.208 152.376L261.614 97.1101L259.761 96.3587ZM238.281 151H231.391V153H238.281V151ZM232.317 151.624L209.958 96.4991L208.105 97.2509L230.464 152.376L232.317 151.624ZM208.032 96.9062L208.922 125.453L210.921 125.391L210.031 96.8438L208.032 96.9062ZM208.922 125.422V152H210.922V125.422H208.922ZM209.922 151H200.922V153H209.922V151ZM201.922 152V83.75H199.922V152H201.922ZM200.922 84.75H212.547V82.75H200.922V84.75ZM283.984 112.766L283.089 112.321L283.086 112.327L283.984 112.766ZM292.141 103.578L291.616 102.727L291.613 102.729L292.141 103.578ZM320.828 107.516L320.081 108.18L320.083 108.183L320.828 107.516ZM324.391 140.516L323.491 140.08L323.489 140.083L324.391 140.516ZM316.281 149.656L315.755 148.806L315.751 148.808L316.281 149.656ZM287.453 145.766L286.706 146.43L286.708 146.433L287.453 145.766ZM293.688 140.75L292.892 141.356L292.895 141.36L293.688 140.75ZM314.688 140.703L315.486 141.305L315.488 141.302L314.688 140.703ZM314.594 112.672L313.796 113.275L313.802 113.283L314.594 112.672ZM282.078 126.172C282.078 121.336 283.02 117.02 284.883 113.204L283.086 112.327C281.074 116.449 280.078 121.07 280.078 126.172H282.078ZM284.88 113.21C286.774 109.393 289.371 106.477 292.669 104.427L291.613 102.729C287.973 104.992 285.133 108.201 283.089 112.321L284.88 113.21ZM292.665 104.43C295.994 102.379 299.794 101.344 304.094 101.344V99.3438C299.456 99.3438 295.287 100.465 291.616 102.727L292.665 104.43ZM304.094 101.344C310.74 101.344 316.037 103.631 320.081 108.18L321.576 106.851C317.119 101.838 311.26 99.3438 304.094 99.3438V101.344ZM320.083 108.183C324.164 112.74 326.25 118.842 326.25 126.594H328.25C328.25 118.471 326.055 111.854 321.573 106.849L320.083 108.183ZM326.25 126.594V127.203H328.25V126.594H326.25ZM326.25 127.203C326.25 132.009 325.323 136.295 323.491 140.08L325.291 140.951C327.271 136.861 328.25 132.272 328.25 127.203H326.25ZM323.489 140.083C321.693 143.825 319.116 146.724 315.755 148.806L316.808 150.506C320.509 148.214 323.338 145.019 325.292 140.948L323.489 140.083ZM315.751 148.808C312.427 150.886 308.583 151.938 304.188 151.938V153.938C308.917 153.938 313.136 152.801 316.811 150.504L315.751 148.808ZM304.188 151.938C297.574 151.938 292.275 149.652 288.198 145.099L286.708 146.433C291.194 151.442 297.051 153.938 304.188 153.938V151.938ZM288.201 145.101C284.149 140.543 282.078 134.47 282.078 126.781H280.078C280.078 134.842 282.258 141.426 286.706 146.43L288.201 145.101ZM282.078 126.781V126.172H280.078V126.781H282.078ZM288.797 127.203C288.797 132.978 290.129 137.728 292.892 141.356L294.483 140.144C292.058 136.96 290.797 132.678 290.797 127.203H288.797ZM292.895 141.36C295.714 145.017 299.509 146.859 304.188 146.859V144.859C300.116 144.859 296.911 143.295 294.48 140.14L292.895 141.36ZM304.188 146.859C308.899 146.859 312.698 145 315.486 141.305L313.889 140.101C311.49 143.281 308.289 144.859 304.188 144.859V146.859ZM315.488 141.302C318.257 137.599 319.578 132.516 319.578 126.172H317.578C317.578 132.266 316.306 136.869 313.887 140.104L315.488 141.302ZM319.578 126.172C319.578 120.451 318.211 115.717 315.385 112.06L313.802 113.283C316.289 116.502 317.578 120.768 317.578 126.172H319.578ZM315.391 112.068C312.576 108.348 308.78 106.469 304.094 106.469V108.469C308.158 108.469 311.362 110.058 313.796 113.275L315.391 112.068ZM304.094 106.469C299.501 106.469 295.756 108.317 292.942 111.968L294.526 113.189C296.963 110.027 300.124 108.469 304.094 108.469V106.469ZM292.942 111.968C290.132 115.615 288.797 120.739 288.797 127.203H290.797C290.797 120.98 292.087 116.354 294.526 113.189L292.942 111.968ZM346.328 101.281L347.327 101.237L347.285 100.281H346.328V101.281ZM346.609 107.656L345.61 107.7L345.728 110.372L347.392 108.278L346.609 107.656ZM378.016 118.484H379.016L379.016 118.477L378.016 118.484ZM378.016 152V153H379.016V152H378.016ZM369.344 152H368.344V153H369.344V152ZM369.344 118.438H370.344L370.344 118.429L369.344 118.438ZM366.812 110.328L366.08 111.009L366.086 111.016L366.812 110.328ZM346.797 115.859L345.898 115.421L345.797 115.629V115.859H346.797ZM346.797 152V153H347.797V152H346.797ZM338.125 152H337.125V153H338.125V152ZM338.125 101.281V100.281H337.125V101.281H338.125ZM345.329 101.325L345.61 107.7L347.608 107.612L347.327 101.237L345.329 101.325ZM347.392 108.278C351.077 103.643 355.85 101.344 361.797 101.344V99.3438C355.243 99.3438 349.892 101.919 345.827 107.034L347.392 108.278ZM361.797 101.344C366.968 101.344 370.688 102.797 373.145 105.545C375.623 108.316 376.97 112.572 377.016 118.492L379.016 118.477C378.968 112.303 377.565 107.488 374.636 104.212C371.687 100.914 367.344 99.3438 361.797 99.3438V101.344ZM377.016 118.484V152H379.016V118.484H377.016ZM378.016 151H369.344V153H378.016V151ZM370.344 152V118.438H368.344V152H370.344ZM370.344 118.429C370.311 114.647 369.44 111.65 367.539 109.641L366.086 111.016C367.498 112.507 368.314 114.915 368.344 118.446L370.344 118.429ZM367.545 109.648C365.659 107.616 362.791 106.703 359.172 106.703V108.703C362.49 108.703 364.716 109.54 366.08 111.009L367.545 109.648ZM359.172 106.703C356.171 106.703 353.497 107.507 351.189 109.136L352.342 110.77C354.285 109.399 356.548 108.703 359.172 108.703V106.703ZM351.189 109.136C348.92 110.738 347.156 112.839 345.898 115.421L347.696 116.297C348.813 114.005 350.361 112.169 352.342 110.77L351.189 109.136ZM345.797 115.859V152H347.797V115.859H345.797ZM346.797 151H338.125V153H346.797V151ZM339.125 152V101.281H337.125V152H339.125ZM338.125 102.281H346.328V100.281H338.125V102.281ZM395.359 146.188L394.635 146.877L394.637 146.879L395.359 146.188ZM391.75 113L390.851 112.561L390.85 112.564L391.75 113ZM399.812 103.719L400.355 104.559L400.357 104.558L399.812 103.719ZM431.922 129.125V130.125H432.922V129.125H431.922ZM397.562 129.125V128.125H396.537L396.563 129.15L397.562 129.125ZM401.922 141.266L401.178 141.934L401.185 141.942L401.922 141.266ZM425.969 139.016L426.583 138.227L425.791 137.61L425.177 138.404L425.969 139.016ZM431.266 143.141L432.104 143.686L432.605 142.916L431.88 142.352L431.266 143.141ZM402.25 111.312L402.979 111.997L402.983 111.992L402.25 111.312ZM397.844 122L396.851 121.878L396.714 123H397.844V122ZM423.25 122V123H424.25V122H423.25ZM423.25 121.344H424.25V121.315L424.248 121.287L423.25 121.344ZM419.688 111.125L418.934 111.782L418.938 111.787L419.688 111.125ZM412.141 151.938C405.507 151.938 400.185 149.777 396.081 145.496L394.637 146.879C399.159 151.598 405.024 153.938 412.141 153.938V151.938ZM396.084 145.498C391.984 141.19 389.891 135.41 389.891 128.047H387.891C387.891 135.809 390.11 142.122 394.635 146.877L396.084 145.498ZM389.891 128.047V126.453H387.891V128.047H389.891ZM389.891 126.453C389.891 121.55 390.819 117.218 392.65 113.436L390.85 112.564C388.869 116.657 387.891 121.294 387.891 126.453H389.891ZM392.649 113.439C394.513 109.62 397.083 106.671 400.355 104.559L399.27 102.879C395.667 105.204 392.862 108.442 390.851 112.561L392.649 113.439ZM400.357 104.558C403.668 102.41 407.23 101.344 411.062 101.344V99.3438C406.833 99.3438 402.895 100.528 399.268 102.88L400.357 104.558ZM411.062 101.344C417.414 101.344 422.238 103.423 425.672 107.503L427.203 106.215C423.325 101.608 417.898 99.3438 411.062 99.3438V101.344ZM425.672 107.503C429.124 111.604 430.922 117.559 430.922 125.516H432.922C432.922 117.285 431.064 110.803 427.203 106.215L425.672 107.503ZM430.922 125.516V129.125H432.922V125.516H430.922ZM431.922 128.125H397.562V130.125H431.922V128.125ZM396.563 129.15C396.693 134.338 398.207 138.629 401.178 141.934L402.666 140.597C400.074 137.715 398.682 133.912 398.562 129.1L396.563 129.15ZM401.185 141.942C404.195 145.219 408.029 146.859 412.609 146.859V144.859C408.565 144.859 405.274 143.437 402.658 140.589L401.185 141.942ZM412.609 146.859C415.807 146.859 418.586 146.206 420.898 144.846L419.884 143.122C417.945 144.263 415.536 144.859 412.609 144.859V146.859ZM420.898 144.846C423.139 143.528 425.093 141.785 426.76 139.627L425.177 138.404C423.657 140.372 421.893 141.941 419.884 143.122L420.898 144.846ZM425.354 139.805L430.651 143.93L431.88 142.352L426.583 138.227L425.354 139.805ZM430.427 142.595C426.381 148.814 420.339 151.938 412.141 151.938V153.938C420.942 153.938 427.65 150.53 432.104 143.686L430.427 142.595ZM411.062 106.469C407.285 106.469 404.081 107.866 401.517 110.633L402.983 111.992C405.169 109.634 407.84 108.469 411.062 108.469V106.469ZM401.521 110.628C398.959 113.359 397.431 117.144 396.851 121.878L398.836 122.122C399.382 117.669 400.791 114.329 402.979 111.997L401.521 110.628ZM397.844 123H423.25V121H397.844V123ZM424.25 122V121.344H422.25V122H424.25ZM424.248 121.287C423.99 116.74 422.757 113.091 420.437 110.463L418.938 111.787C420.868 113.972 422.01 117.135 422.252 121.4L424.248 121.287ZM420.441 110.468C418.102 107.785 414.937 106.469 411.062 106.469V108.469C414.438 108.469 417.023 109.59 418.934 111.782L420.441 110.468ZM457.938 139.297L456.989 139.613L457.97 142.561L458.892 139.594L457.938 139.297ZM469.75 101.281V100.281H469.014L468.795 100.985L469.75 101.281ZM479.031 101.281L479.976 101.61L480.438 100.281H479.031V101.281ZM458.641 159.828L459.577 160.178L459.581 160.168L459.585 160.157L458.641 159.828ZM443.594 172.484L443.508 173.481L443.551 173.484H443.594V172.484ZM441.953 172.344L441.768 173.326L441.818 173.336L441.868 173.34L441.953 172.344ZM438.719 171.734H437.719V172.564L438.534 172.717L438.719 171.734ZM438.719 164.703L438.798 163.706L437.719 163.62V164.703H438.719ZM441.062 164.891L440.983 165.887L441.023 165.891H441.062V164.891ZM447.906 163.109L447.324 162.297L447.316 162.302L447.906 163.109ZM451.984 156.594L451.047 156.244L451.042 156.26L451.037 156.275L451.984 156.594ZM453.906 151.438L454.843 151.787L454.971 151.443L454.847 151.098L453.906 151.438ZM435.812 101.281V100.281H434.389L434.872 101.621L435.812 101.281ZM445.281 101.281L446.23 100.965L446.002 100.281H445.281V101.281ZM458.892 139.594L470.705 101.578L468.795 100.985L456.983 139L458.892 139.594ZM469.75 102.281H479.031V100.281H469.75V102.281ZM478.087 100.952L457.696 159.499L459.585 160.157L479.976 101.61L478.087 100.952ZM457.704 159.478C456.165 163.593 454.204 166.59 451.868 168.555C449.55 170.505 446.808 171.484 443.594 171.484V173.484C447.254 173.484 450.458 172.354 453.155 170.086C455.835 167.832 457.96 164.501 459.577 160.178L457.704 159.478ZM443.679 171.488L442.039 171.347L441.868 173.34L443.508 173.481L443.679 171.488ZM442.138 171.361L438.904 170.752L438.534 172.717L441.768 173.326L442.138 171.361ZM439.719 171.734V164.703H437.719V171.734H439.719ZM438.639 165.7L440.983 165.887L441.142 163.894L438.798 163.706L438.639 165.7ZM441.062 165.891C444.119 165.891 446.637 165.275 448.496 163.917L447.316 162.302C445.925 163.319 443.881 163.891 441.062 163.891V165.891ZM448.489 163.922C450.393 162.557 451.841 160.153 452.932 156.913L451.037 156.275C450.002 159.347 448.732 161.287 447.324 162.297L448.489 163.922ZM452.921 156.943L454.843 151.787L452.969 151.088L451.047 156.244L452.921 156.943ZM454.847 151.098L436.753 100.942L434.872 101.621L452.966 151.777L454.847 151.098ZM435.812 102.281H445.281V100.281H435.812V102.281ZM444.332 101.597L456.989 139.613L458.886 138.981L446.23 100.965L444.332 101.597Z" fill="black"/>
<path d="M187.078 9.15625H165.141V70H156.188V9.15625H134.297V1.75H187.078V9.15625ZM205.266 70H196.594V19.2812H205.266V70ZM195.891 5.82812C195.891 4.42188 196.312 3.23438 197.156 2.26562C198.031 1.29687 199.312 0.8125 201 0.8125C202.688 0.8125 203.969 1.29687 204.844 2.26562C205.719 3.23438 206.156 4.42188 206.156 5.82812C206.156 7.23438 205.719 8.40625 204.844 9.34375C203.969 10.2812 202.688 10.75 201 10.75C199.312 10.75 198.031 10.2812 197.156 9.34375C196.312 8.40625 195.891 7.23438 195.891 5.82812ZM227.344 19.2812L227.578 24.9062C231.297 20.5312 236.312 18.3438 242.625 18.3438C249.719 18.3438 254.547 21.0625 257.109 26.5C258.797 24.0625 260.984 22.0938 263.672 20.5938C266.391 19.0938 269.594 18.3438 273.281 18.3438C284.406 18.3438 290.062 24.2344 290.25 36.0156V70H281.578V36.5312C281.578 32.9062 280.75 30.2031 279.094 28.4219C277.438 26.6094 274.656 25.7031 270.75 25.7031C267.531 25.7031 264.859 26.6719 262.734 28.6094C260.609 30.5156 259.375 33.0938 259.031 36.3438V70H250.312V36.7656C250.312 29.3906 246.703 25.7031 239.484 25.7031C233.797 25.7031 229.906 28.125 227.812 32.9688V70H219.141V19.2812H227.344ZM324.422 70.9375C317.547 70.9375 311.953 68.6875 307.641 64.1875C303.328 59.6562 301.172 53.6094 301.172 46.0469V44.4531C301.172 39.4219 302.125 34.9375 304.031 31C305.969 27.0312 308.656 23.9375 312.094 21.7188C315.562 19.4688 319.312 18.3438 323.344 18.3438C329.938 18.3438 335.062 20.5156 338.719 24.8594C342.375 29.2031 344.203 35.4219 344.203 43.5156V47.125H309.844C309.969 52.125 311.422 56.1719 314.203 59.2656C317.016 62.3281 320.578 63.8594 324.891 63.8594C327.953 63.8594 330.547 63.2344 332.672 61.9844C334.797 60.7344 336.656 59.0781 338.25 57.0156L343.547 61.1406C339.297 67.6719 332.922 70.9375 324.422 70.9375ZM323.344 25.4688C319.844 25.4688 316.906 26.75 314.531 29.3125C312.156 31.8438 310.688 35.4062 310.125 40H335.531V39.3438C335.281 34.9375 334.094 31.5312 331.969 29.125C329.844 26.6875 326.969 25.4688 323.344 25.4688Z" fill="#8DD070"/>
</svg>
